<?xml version="1.0" encoding="utf-8"?>
<!-- Generator: Adobe Illustrator 24.0.1, SVG Export Plug-In . SVG Version: 6.00 Build 0)  -->
<svg version="1.1" id="Capa_1" xmlns="http://www.w3.org/2000/svg" xmlns:xlink="http://www.w3.org/1999/xlink" x="0px" y="0px"
	 viewBox="0 0 21 19" style="enable-background:new 0 0 21 19;" xml:space="preserve">
<style type="text/css">
	.st0{fill:#006FCA;}
</style>
<g transform="translate(-314 -141)">
	<path class="st0" d="M315,141h19c0.6,0,1,0.4,1,1v6c0,0.6-0.4,1-1,1h-19c-0.6,0-1-0.4-1-1v-6C314,141.4,314.4,141,315,141z"/>
	<path class="st0" d="M315,152h19c0.6,0,1,0.4,1,1v6c0,0.6-0.4,1-1,1h-19c-0.6,0-1-0.4-1-1v-6C314,152.4,314.4,152,315,152z"/>
</g>
</svg>
