<?xml version="1.0" encoding="utf-8"?>
<!-- Generator: Adobe Illustrator 24.0.1, SVG Export Plug-In . SVG Version: 6.00 Build 0)  -->
<svg version="1.1" id="Capa_1" xmlns="http://www.w3.org/2000/svg" xmlns:xlink="http://www.w3.org/1999/xlink" x="0px" y="0px"
	 viewBox="0 0 21 23.7" style="enable-background:new 0 0 21 23.7;" xml:space="preserve">
<style type="text/css">
	.st0{fill:#CDCDCD;}
	.st1{fill:none;stroke:#CDCDCD;stroke-width:2;}
	.st2{enable-background:new    ;}
	.st3{fill:#FFFFFF;}
</style>
<g transform="translate(-263 -137.337)">
	<g transform="translate(263 140)">
		<path class="st0" d="M1,0h19c0.6,0,1,0.4,1,1v19c0,0.6-0.4,1-1,1H1c-0.6,0-1-0.4-1-1V1C0,0.4,0.4,0,1,0z"/>
		<rect x="1" y="1" class="st1" width="19" height="19"/>
	</g>
	<g transform="translate(268.655 137.337)">
		<g transform="translate(0 0)">
			<path class="st1" d="M9.8,2.7V0"/>
			<path class="st1" d="M0,2.7V0"/>
		</g>
	</g>
	<g class="st2">
		<path class="st3" d="M273.4,151.4c-0.8-0.2-1.4-0.5-1.8-0.8c-0.4-0.3-0.6-0.7-0.6-1.2c0-0.6,0.2-1,0.6-1.4c0.4-0.4,1-0.6,1.7-0.6
			c0.5,0,0.9,0.1,1.3,0.3c0.4,0.2,0.7,0.4,0.9,0.8c0.2,0.3,0.3,0.7,0.3,1.1l-0.9,0c0-0.4-0.1-0.8-0.4-1c-0.3-0.2-0.7-0.4-1.2-0.4
			c-0.5,0-0.8,0.1-1.1,0.3c-0.3,0.2-0.4,0.5-0.4,0.9c0,0.3,0.1,0.5,0.4,0.7c0.2,0.2,0.7,0.4,1.3,0.5s1.1,0.3,1.4,0.5
			c0.3,0.2,0.6,0.4,0.8,0.7c0.2,0.3,0.3,0.6,0.3,0.9c0,0.6-0.2,1-0.6,1.4c-0.4,0.4-1,0.5-1.8,0.6c-0.5,0-0.9-0.1-1.4-0.3
			c-0.4-0.2-0.8-0.4-1-0.8c-0.2-0.3-0.4-0.7-0.4-1.1l0.9,0c0,0.4,0.2,0.8,0.5,1s0.7,0.4,1.3,0.4c0.5,0,0.9-0.1,1.1-0.3
			c0.3-0.2,0.4-0.5,0.4-0.8c0-0.3-0.1-0.6-0.4-0.8C274.5,151.7,274.1,151.5,273.4,151.4z"/>
	</g>
</g>
</svg>
