<?xml version="1.0" encoding="utf-8"?>
<!-- Generator: Adobe Illustrator 24.0.1, SVG Export Plug-In . SVG Version: 6.00 Build 0)  -->
<svg version="1.1" id="Capa_1" xmlns="http://www.w3.org/2000/svg" xmlns:xlink="http://www.w3.org/1999/xlink" x="0px" y="0px"
	 viewBox="0 0 21 23.7" style="enable-background:new 0 0 21 23.7;" xml:space="preserve">
<style type="text/css">
	.st0{fill:#CDCDCD;}
	.st1{fill:none;stroke:#CDCDCD;stroke-width:2;}
	.st2{enable-background:new    ;}
	.st3{fill:#FFFFFF;}
</style>
<g transform="translate(-263 -137.337)">
	<g transform="translate(263 140)">
		<path class="st0" d="M1,0h19c0.6,0,1,0.4,1,1v19c0,0.6-0.4,1-1,1H1c-0.6,0-1-0.4-1-1V1C0,0.4,0.4,0,1,0z"/>
		<rect x="1" y="1" class="st1" width="19" height="19"/>
	</g>
	<g transform="translate(268.655 137.337)">
		<g transform="translate(0 0)">
			<path class="st1" d="M9.8,2.7V0"/>
			<path class="st1" d="M0,2.7V0"/>
		</g>
	</g>
	<g class="st2">
		<path class="st3" d="M271.9,152.3l0.2,0.9l0.2-0.8l1.3-5l0.8,0l1.5,4.9l0.2,0.9l0.1-1l1-4.9l0.9,0l-1.6,7.1l-0.9,0l-1.6-5.2
			l-0.1-0.5l-0.1,0.5l-1.4,5.2l-0.9,0l-1.8-7.1l0.9,0L271.9,152.3z"/>
	</g>
</g>
</svg>
