<?xml version="1.0" encoding="utf-8"?>
<!-- Generator: Adobe Illustrator 24.0.1, SVG Export Plug-In . SVG Version: 6.00 Build 0)  -->
<svg version="1.1" id="Capa_1" xmlns="http://www.w3.org/2000/svg" xmlns:xlink="http://www.w3.org/1999/xlink" x="0px" y="0px"
	 viewBox="0 0 21 23.7" style="enable-background:new 0 0 21 23.7;" xml:space="preserve">
<style type="text/css">
	.st0{fill:#006FCA;}
	.st1{fill:none;stroke:#006FCA;stroke-width:2;}
	.st2{enable-background:new    ;}
	.st3{fill:#FFFFFF;}
</style>
<g transform="translate(-263 -137.337)">
	<g transform="translate(263 140)">
		<path class="st0" d="M1,0h19c0.6,0,1,0.4,1,1v19c0,0.6-0.4,1-1,1H1c-0.6,0-1-0.4-1-1V1C0,0.4,0.4,0,1,0z"/>
		<rect x="1" y="1" class="st1" width="19" height="19"/>
	</g>
	<g transform="translate(268.655 137.337)">
		<g transform="translate(0 0)">
			<path class="st1" d="M9.8,2.7V0"/>
			<path class="st1" d="M0,2.7V0"/>
		</g>
	</g>
	<g class="st2">
		<path class="st3" d="M271.4,154.6l-0.1-7.1h2c0.6,0,1.2,0.1,1.6,0.4c0.5,0.3,0.9,0.6,1.1,1.1c0.3,0.5,0.4,1.1,0.4,1.7v0.5
			c0,0.7-0.1,1.3-0.4,1.8s-0.6,0.9-1.1,1.2s-1,0.4-1.7,0.4L271.4,154.6z M272.2,148.2l0.1,5.6h1c0.7,0,1.3-0.2,1.7-0.7
			c0.4-0.5,0.6-1.1,0.6-1.9v-0.4c0-0.8-0.2-1.4-0.6-1.9c-0.4-0.4-0.9-0.7-1.6-0.7L272.2,148.2z"/>
	</g>
</g>
</svg>
